<svg xmlns="http://www.w3.org/2000/svg"><symbol id="icon-poop" viewBox="0 0 20 19.1"><path d="M20 15.6v.8s0 .1-.1.1c-.2.8-.7 1.4-1.5 1.8-1.1.5-2.2.7-3.4.8-.1 0-.1 0-.2.1h-2.9c-.8-.1-1.7-.2-2.5-.3-.7-.1-1.3-.2-2-.3-.2 0-.4-.1-.6-.1-.9.1-1.7.3-2.5.4-.6.1-1.3.2-2 .1-1-.1-2.1-.8-2.2-2.1 0-.1-.1-.2-.1-.3v-1s0-.1.1-.1c.1-.4.2-.8.5-1.2.4-.6.9-.9 1.5-1.2 0-.1.2-.1.3-.2 0-.4-.1-.7-.1-1.1 0-.6.1-1.2.4-1.7.4-.6.9-1 1.6-1.3.1 0 .1-.1.2-.1v-.1c-.5-1.2-.3-2.2.6-3.1.4-.4.9-.7 1.4-1 .1 0 .1-.1.1-.1-.1-.6.1-1.2.4-1.7.1-.2.3-.4.4-.6.3-.4.3-.8 0-1.2-.2-.5-.2-.6.2-.9h.6s.1 0 .1.1l.9.3c1.3.6 2.4 1.5 3.3 2.6.6.8 1 1.6.9 2.6h.1c.4.1.7.2 1.1.4.9.5 1.3 1.3 1.2 2.3 0 .1 0 .2-.1.3.9.4 1.6.9 2 1.7.4.9.3 1.8-.1 2.6.2.1.3.1.5.2.9.6 1.6 1.3 1.9 2.5 0-.1 0-.1 0 0z"/></symbol></svg>